<svg width="512" height="512" xmlns="http://www.w3.org/2000/svg" version="1.1" enable-background="new 0 0 512 512" xml:space="preserve">
 <metadata id="metadata3390">image/svg+xml</metadata>

 <g>
  <title>Layer 1</title>
  <path fill="#222222" d="m256.4,25.8l-200,115.5l-0.4,230.2l199.6,114.7l200,-115.5l0.4,-230.2l-199.6,-114.7zm92.6,328.8l-18.4,10.7l-18.6,-11l0,0l-112,-142.3l0,142.6l-18.4,10.7l-18.6,-11l0,-197l18.5,-10.6l18.5,10.8l0,0l112,144.5l0,-144.6l18.5,-10.6l18.5,10.8l0,197z" id="path3384"/>
  <path stroke="#000" id="svg_4" d="m0.68292,195.11409l194.80565,0l60.19644,-195.56873l60.19648,195.56873l194.80561,0l-157.60079,120.86674l60.19956,195.56873l-157.60086,-120.87003l-157.60083,120.87003l60.19958,-195.56873l-157.60084,-120.86674z" fill="#fff"/>
  <ellipse ry="122.001" rx="121.001" id="svg_8" cy="220.80392" cx="256" stroke="#000" fill="#CE7975"/>
 </g>
</svg>